<svg width="89" height="89" viewBox="0 0 89 89" fill="none" xmlns="http://www.w3.org/2000/svg">
<path d="M42.8932 88.6255C37.2494 88.6255 31.6398 87.4968 26.4406 85.2734C21.2414 83.0501 16.5211 79.7664 12.5533 75.6618C4.48087 67.2815 0 56.028 0 44.3299C0 32.6317 4.51508 21.3782 12.5533 12.9979C16.5211 8.89332 21.2414 5.60964 26.4406 3.3863C31.6398 1.16297 37.2494 0 42.8932 0C48.5371 0 54.1467 1.16297 59.3459 3.3863C64.5451 5.60964 69.2654 8.89332 73.2332 12.9979C81.3398 21.344 85.8549 32.5975 85.7865 44.3299C85.7865 49.1186 85.034 53.9073 83.5632 58.4566C83.4605 58.7644 83.3579 59.1407 83.2211 59.5512L70.5994 32.5291C68.4103 26.851 64.6135 21.9597 59.688 18.5392C54.7624 15.0845 48.9134 13.2374 42.8932 13.2032C34.855 13.3058 27.2273 16.6579 21.6177 22.4728C16.008 28.3219 12.8953 36.1548 12.998 44.3299C12.9295 52.4707 16.008 60.3379 21.6177 66.187C27.2273 72.036 34.8893 75.3539 42.9275 75.4566C46.3822 75.4566 49.8027 74.8409 53.0522 73.6095L59.688 85.1366C54.3862 87.4626 48.6739 88.6255 42.9275 88.6255H42.8932Z" fill="white"/>
<path d="M88.8988 88.8986L59.2088 35.1281C57.0196 31.3655 53.7017 28.4581 49.7339 26.7821C45.7661 25.106 41.3879 24.7982 37.2148 25.8585L71.591 88.8986H88.8988Z" fill="white"/>
<path d="M6.77148 20.4548L28.0813 58.6961C30.2704 62.4587 33.5883 65.3661 37.5561 67.0422C41.5239 68.7183 45.9022 69.0261 50.0752 67.9657L17.1014 9.03027C12.8258 11.9377 9.26846 15.8371 6.77148 20.4548Z" fill="white"/>
</svg>
