<svg width="47" height="47" viewBox="0 0 47 47" fill="none" xmlns="http://www.w3.org/2000/svg">
<path fill-rule="evenodd" clip-rule="evenodd" d="M22.4458 0.0241006C35.4232 -0.558679 46.4119 9.49879 46.9773 22.4772C47.5428 35.4557 37.471 46.4306 24.4915 46.9786C11.5368 47.5257 0.587145 37.4769 0.0226924 24.5231C-0.541761 11.569 9.4927 0.605771 22.4458 0.0241006ZM10.3976 12.8208L10.3956 12.8186C9.69007 12.0802 8.90291 11.2567 8.30678 10.73C4.97641 14.6031 3.29439 19.6261 3.62112 24.7236C3.98853 30.0893 6.48873 35.0845 10.5639 38.5941C14.5401 42.0278 19.7242 43.7301 24.962 43.3217C26.796 43.1894 28.6031 42.8075 30.3341 42.187C32.4689 41.4252 34.447 40.2794 36.17 38.8054C29.859 32.3831 23.514 25.9941 17.1357 19.6383L11.2574 13.7121C11.002 13.4531 10.7076 13.1452 10.3976 12.8208ZM12.9398 18.0095L13.9243 18.0012L28.9095 32.9366C28.9708 33.4231 28.9642 34.3521 28.9592 35.0473L28.9582 35.222C28.9572 35.3334 28.9568 35.4362 28.9568 35.527L28.9782 39.9239C27.6325 39.943 26.2613 39.938 24.8993 39.933C24.3425 39.931 23.7874 39.9289 23.2363 39.9286L18.0398 39.9235C18.0602 39.166 18.0525 38.3469 18.0448 37.5435V37.5312C18.0412 37.1315 18.0375 36.7358 18.0375 36.3536L18.0282 28.9656C15.6107 28.9379 13.1641 28.9442 10.7253 28.9505H10.7203H10.7153C9.51537 28.9537 8.31745 28.9568 7.12553 28.9558L7.10519 18.0172C9.04994 18.0335 10.995 18.031 12.9398 18.0095ZM22.4321 3.6314C23.2089 3.56179 24.3485 3.60621 25.1217 3.66954C29.1445 3.99012 32.9713 5.54182 36.082 8.11358C40.1735 11.4434 42.7744 16.2617 43.3139 21.5091C43.85 26.933 42.1796 32.0848 38.7372 36.2802C38.3318 35.9277 37.9034 35.4887 37.506 35.0815L37.2376 34.8071L35.2101 32.7595L20.7037 18.2406C19.5275 17.0547 18.3546 15.8551 17.1803 14.6542L17.1623 14.636C15.0575 12.4834 12.9488 10.3269 10.8103 8.2379C13.932 5.3808 18.2512 3.88672 22.4321 3.6314ZM28.9658 7.87377C28.9685 7.61605 28.9728 7.17207 28.9462 7.04528L18.0295 7.05787C18.0302 7.78708 18.0255 8.5363 18.0208 9.29196C18.0108 10.8803 18.0008 12.497 18.0395 14.0162C19.9723 15.9864 21.9237 17.9386 23.8927 19.8727L30.9796 26.9863C31.1056 27.1123 31.2356 27.2442 31.3683 27.3794L31.6627 27.6808C31.9451 27.9701 32.2332 28.265 32.5119 28.541C32.6603 28.688 32.8063 28.8297 32.9473 28.9622C33.7568 28.961 34.577 28.9649 35.3999 28.9687C36.9038 28.9758 38.4165 28.9829 39.8898 28.9592L39.8788 18.0211L28.9772 18.033C28.9555 15.3515 28.9512 12.6698 28.9635 9.9882L28.9648 8.00813L28.9658 7.87377Z" fill="white"/>
<path fill-rule="evenodd" clip-rule="evenodd" d="M28.9658 7.8739C28.9684 7.61618 28.9728 7.1722 28.9461 7.04541L18.0295 7.058C18.0301 7.78721 18.0255 8.53643 18.0208 9.29209C18.0108 10.8804 18.0008 12.4971 18.0395 14.0163C19.9722 15.9865 21.9236 17.9388 23.8927 19.8728L30.9795 26.9864C31.1056 27.1124 31.2356 27.2444 31.3683 27.3796L31.6627 27.6809C31.9451 27.9702 32.2331 28.2652 32.5119 28.5411C32.6602 28.6882 32.8063 28.8298 32.9473 28.9623C33.7568 28.9611 34.577 28.965 35.3998 28.9689C36.9038 28.9759 38.4164 28.9831 39.8897 28.9593L39.8787 18.0213L28.9771 18.0332C28.9554 15.3516 28.9511 12.6699 28.9634 9.98833L28.9648 8.00826L28.9658 7.8739Z" fill="white"/>
<path d="M28.946 7.04541C28.9728 7.17222 28.9684 7.61619 28.9658 7.8739C28.9653 7.92873 28.9649 7.97514 28.9648 8.00826L28.9635 9.98833C28.9512 12.6699 28.9554 15.3516 28.9772 18.0332L39.8787 18.0213L39.8898 28.9593C37.6105 28.996 35.2369 28.9589 32.9473 28.9623C32.3217 28.3747 31.6017 27.6082 30.9795 26.9864L23.8928 19.8728C21.9235 17.9388 19.9724 15.9865 18.0394 14.0163C17.9825 11.7743 18.0316 9.3199 18.0296 7.058L28.946 7.04541Z" fill="white"/>
<path fill-rule="evenodd" clip-rule="evenodd" d="M13.9246 18.001L12.94 18.0093C10.9953 18.0308 9.05021 18.0334 7.10547 18.017L7.12581 28.9556C8.31939 28.9566 9.51898 28.9535 10.7206 28.9504H10.7256C13.1644 28.9441 15.6109 28.9377 18.0284 28.9654L18.0378 36.3534C18.0378 36.7356 18.0415 37.1313 18.0451 37.531V37.5433C18.0528 38.3467 18.0605 39.1659 18.0401 39.9233L23.2365 39.9284C23.7877 39.9288 24.3428 39.9308 24.8996 39.9328C26.2615 39.9378 27.6328 39.9428 28.9784 39.9237L28.9571 35.5268C28.9571 35.436 28.9574 35.3333 28.9584 35.2219L28.9594 35.0472C28.9644 34.352 28.9711 33.4229 28.9097 32.9364L13.9246 18.001Z" fill="white"/>
<path d="M12.94 18.0093L13.9246 18.001L28.9096 32.9364C28.9868 33.5484 28.9565 34.8607 28.957 35.5268L28.9783 39.9237C27.0826 39.9506 25.1362 39.9297 23.2367 39.9284L18.0401 39.9233C18.0704 38.7851 18.038 37.5074 18.0377 36.3534L18.0285 28.9654C14.4183 28.924 10.7436 28.9586 7.12565 28.9556L7.10547 18.017C9.05029 18.0334 10.9952 18.0308 12.94 18.0093Z" fill="white"/>
</svg>
