<svg width="51" height="31" viewBox="0 0 51 31" fill="none" xmlns="http://www.w3.org/2000/svg">
<path d="M35.5609 0.0385742C35.8798 0.186146 39.3355 3.75155 39.8276 4.24337L50.7179 15.0855C47.5638 18.1623 44.4993 21.3434 41.3466 24.4237C39.4119 26.3141 37.5394 28.2819 35.6022 30.1661C34.7245 29.3491 33.7434 28.3221 32.8825 27.4663L27.1809 21.7769C27.5904 21.3475 28.0713 20.8901 28.4966 20.4688C29.2271 19.7857 29.9617 19.0374 30.6748 18.3314C32.3242 19.9217 33.9558 21.5304 35.5691 23.1579L43.7326 15.1049C40.9885 12.4383 38.331 9.68609 35.564 7.02278C33.9991 8.5642 32.2555 10.4235 30.6371 11.8559C29.493 10.695 28.3392 9.54418 27.1758 8.40349L35.5609 0.0385742Z" fill="white"/>
<path d="M15.1008 0C15.4307 0.287655 15.9267 0.812125 16.2491 1.13177L18.6582 3.53698C20.2617 5.13851 21.9844 6.7619 23.536 8.39115C22.6883 9.27545 20.9326 11.0461 20.017 11.8212C18.3768 10.2677 16.7613 8.60952 15.1474 7.01869C14.7422 7.38693 14.3568 7.80361 13.9607 8.18428C11.6157 10.4377 9.35849 12.8613 6.98655 15.0805C8.43175 16.6072 10.1474 18.2026 11.6469 19.7043C12.4756 20.5341 14.3146 22.4239 15.182 23.1213C16.7777 21.4999 18.3941 19.8994 20.0308 18.3197C20.7205 18.9585 21.5324 19.8072 22.2128 20.4786C22.6521 20.8922 23.0973 21.3389 23.5309 21.7617C22.706 22.6909 21.395 23.916 20.4831 24.8186L15.1212 30.1632C13.6552 28.7837 12.1401 27.1674 10.6933 25.7406C7.11405 22.21 3.59576 18.5821 0 15.0719C1.94161 13.2477 3.99599 11.1203 5.88982 9.22798L15.1008 0Z" fill="white"/>
<path d="M14.9188 12.7481L35.7769 12.7427L35.7897 15.6662C35.7917 16.1246 35.8111 16.9254 35.7586 17.362C32.9595 17.3997 30.117 17.3732 27.3159 17.3727L14.9365 17.3671C14.9147 15.8277 14.9088 14.2878 14.9188 12.7481Z" fill="white"/>
</svg>
