<svg width="1440" height="281" viewBox="0 0 1440 281" fill="none" xmlns="http://www.w3.org/2000/svg">
<path d="M317.916 281L200.517 68.3846C191.861 53.5069 178.742 42.0106 163.053 35.3833C147.364 28.756 130.051 27.5387 113.551 31.7315L249.478 281H317.916Z" fill="#F6FCFF"/>
<path d="M-42.8609 -51.9997L74.5373 160.615C83.1934 175.493 96.3128 186.989 112.002 193.617C127.691 200.244 145.003 201.461 161.504 197.269L25.5763 -51.9997L-42.8609 -51.9997Z" fill="#F6FCFF"/>
<path d="M1121.92 281L1239.32 68.3853C1247.98 53.5077 1261.1 42.0114 1276.79 35.3841C1292.48 28.7567 1309.79 27.5394 1326.29 31.7322L1190.36 281H1121.92Z" fill="#F6FCFF"/>
<path d="M1482.7 -51.9995L1365.3 160.616C1356.65 175.493 1343.53 186.99 1327.84 193.617C1312.15 200.244 1294.84 201.462 1278.34 197.269L1414.26 -51.9995L1482.7 -51.9995Z" fill="#F6FCFF"/>
</svg>
