<svg width="60" height="42" viewBox="0 0 60 42" fill="none" xmlns="http://www.w3.org/2000/svg">
<path d="M43.0643 20.9216C43.7456 20.8725 44.5347 20.9412 45.2154 20.9964C48.6376 21.2735 51.0941 22.9267 54.0295 24.4977L59.8854 27.6305C59.7291 28.1428 59.4962 28.7508 59.3023 29.2555C57.7917 33.1917 56.5177 37.2823 54.991 41.2047C51.8957 39.6756 49.762 37.8642 46.1644 37.3324C43.0098 36.8662 41.0383 37.5551 38.0867 38.4338L32.0836 40.2803C29.2577 41.1504 26.6753 42.3259 23.8156 40.9938C23.0881 40.6549 22.3795 40.2276 21.68 39.836L17.9246 37.7513L12.9994 35.04C12.3824 34.6974 11.0334 33.9858 10.525 33.5949C9.8819 33.1006 8.84573 31.9729 8.26098 31.3597L4.83037 27.7606C3.20185 26.072 1.59164 24.3657 0 22.6423C3.20185 19.2722 6.55804 22.5248 9.15401 24.6623C10.9218 26.1178 12.6712 27.5357 14.4111 29.0301C15.3183 29.018 15.7852 29.3544 16.5963 29.7547C17.0142 31.3834 18.252 32.6945 19.9844 32.8587C20.8497 32.9407 21.7177 32.9151 22.5864 32.9148L26.7643 32.9109L32.1967 32.9126C32.7894 32.9131 34.8903 33.0026 35.5393 32.785C35.6512 32.7474 35.6805 32.5365 35.6734 32.3908C35.5883 32.2719 35.5315 32.1502 35.3746 32.1354C34.5113 32.0542 33.3744 32.0979 32.511 32.0988L24.2746 32.1079C22.9255 32.1099 20.9981 32.224 19.7532 31.9961C17.5201 31.5873 16.6588 28.6183 18.2061 26.9818C19.7802 25.3169 22.0976 25.8699 24.1328 25.7646C26.3228 25.6512 28.4943 25.9821 30.6401 25.5358C31.977 25.2439 33.4612 24.3053 34.6316 23.6026C37.4114 21.9335 39.8331 21.1045 43.0643 20.9216Z" fill="white"/>
<path fill-rule="evenodd" clip-rule="evenodd" d="M38.1947 10.5658C37.7398 4.30096 32.2986 -0.41307 26.0323 0.0286766C19.7474 0.471724 15.0155 5.93201 15.4718 12.2153C15.9282 18.4987 21.399 23.2184 27.682 22.749C33.9465 22.2809 38.6499 16.8305 38.1947 10.5658ZM26.5587 18.4104C26.7464 18.4032 26.8176 18.4059 27.0034 18.43C27.1549 18.6008 27.1143 20.5588 27.0954 21.4446V21.4624L27.0917 21.6321L27.0888 21.8055L27.0245 21.8059C26.9796 21.8064 26.9344 21.8068 26.8898 21.8054C26.8384 21.8038 26.7876 21.7998 26.7394 21.7904L26.7131 21.7847L26.6847 21.777L26.6639 21.7703C26.6303 21.7584 26.5985 21.7427 26.5689 21.722C26.5036 21.1516 26.527 19.0306 26.5587 18.4104ZM32.2686 20.1693C32.1051 19.839 30.7511 17.5673 30.5379 17.3594L30.4952 17.3834L30.4536 17.4059C30.3243 17.4757 30.1863 17.5502 30.1319 17.6662C30.2827 18.0051 31.6466 20.3997 31.8773 20.4862C31.9324 20.4537 31.9777 20.4298 32.0164 20.4095C32.1361 20.3468 32.1923 20.3173 32.2686 20.1693ZM33.0462 14.7159C34.0187 15.2724 34.9946 15.8214 35.9751 16.3629L35.6717 16.8528C35.5619 16.7914 35.4224 16.7148 35.264 16.628L35.2176 16.6024C34.4324 16.1715 33.228 15.5106 32.8319 15.1891C32.8199 15.0256 32.9524 14.8669 33.0462 14.7159ZM34.3455 11.1305L34.34 11.1305L34.0425 11.1344L33.8928 11.1359C33.8932 11.1681 33.8928 11.1994 33.8924 11.23C33.8913 11.3794 33.8902 11.5105 33.9819 11.6262C34.4167 11.6982 35.9379 11.6775 36.8166 11.6656C37.0126 11.6629 37.1769 11.6607 37.2897 11.66L37.289 11.5996V11.5648C37.2886 11.4176 37.2886 11.2782 37.205 11.165C36.7155 11.0988 35.2311 11.1186 34.3455 11.1305ZM26.4671 5.87547L26.57 5.87205L26.6558 5.86908C26.6898 5.86812 26.7234 5.86758 26.757 5.8679L26.7942 5.8686C26.8289 5.86967 26.8636 5.87187 26.8979 5.87572C26.9683 5.88362 27.0377 5.89851 27.106 5.92498C27.176 6.18301 27.1622 8.53412 27.1563 9.54159V9.55649L27.1545 9.92555L27.1819 9.93739L27.2425 9.96459C27.8817 10.2591 28.081 10.4682 28.3271 11.1289L30.9245 11.1342L30.9584 11.7931C30.3565 11.8016 29.7435 11.7998 29.1339 11.7981L28.6684 11.7969L28.2986 11.7966C27.4509 13.3976 25.4562 13.1139 25.319 11.3658L25.3172 11.0119C25.0853 10.7499 23.118 9.23426 22.1955 8.52355L21.7983 8.21711L22.3572 7.6047C23.0147 8.16682 23.7437 8.72488 24.4625 9.27494L24.4669 9.27816L24.4834 9.29103C24.894 9.60518 25.3011 9.91676 25.6895 10.225C25.8125 10.1696 25.9191 10.1272 26.025 10.0895C26.1009 10.0624 26.1765 10.0377 26.2576 10.0122L26.4543 9.95179C26.4689 9.01244 26.4678 8.0589 26.4667 7.11017V6.70493C26.4664 6.42765 26.4664 6.151 26.4671 5.87547ZM27.3078 10.8084C27.0939 10.624 26.7949 10.5743 26.5324 10.6793C26.163 10.8274 25.9713 11.2363 26.094 11.615C26.217 11.9936 26.612 12.2124 26.9983 12.1154C27.2721 12.0467 27.4853 11.831 27.5502 11.556C27.6156 11.2811 27.5218 10.9928 27.3078 10.8084ZM35.9025 6.3012C35.8185 6.17147 35.7188 6.01755 35.6155 5.93799C35.3914 6.06498 35.1548 6.19684 34.9128 6.33182C34.1801 6.74023 33.3963 7.17721 32.752 7.59406L32.8213 7.68925L32.8349 7.70792C32.9185 7.82309 33.0254 7.96996 33.0787 8.02896C33.3197 7.89271 33.5657 7.75508 33.8139 7.61629C34.5349 7.21301 35.2731 6.80006 35.9561 6.3832C35.939 6.35778 35.9211 6.33008 35.9025 6.3012ZM31.8594 2.26807L31.897 2.28564C31.9934 2.33073 32.0876 2.37479 32.1522 2.44426C32.1858 2.48052 32.2117 2.52369 32.2256 2.57753C32.0142 3.09423 31.2768 4.28189 30.8172 5.02205C30.7237 5.17243 30.6419 5.30436 30.5784 5.40842L30.133 5.13504L31.8225 2.25014L31.8594 2.26807ZM26.6146 0.947261L26.5459 0.950752L26.543 1.25843C26.5328 2.09625 26.5102 4.02922 26.5861 4.27479C26.6788 4.31609 26.7555 4.33147 26.834 4.33573C26.8895 4.33875 26.9461 4.33628 27.0099 4.33348L27.095 4.33017C27.0957 4.1519 27.099 3.92495 27.1027 3.67192C27.1162 2.79107 27.1341 1.59415 27.068 1.03431C27.0552 1.02196 27.0428 1.01126 27.0304 1.002C27.0202 0.994194 27.0099 0.987418 26.9997 0.981509C26.9804 0.970648 26.961 0.962754 26.9406 0.957072C26.884 0.941329 26.8205 0.942493 26.7365 0.944021L26.6923 0.944751L26.6146 0.947261ZM21.7458 2.26979L21.8316 2.28051C22.0407 2.46014 23.3498 4.73497 23.5159 5.08769C23.494 5.13668 23.4681 5.17273 23.4378 5.20243C23.3944 5.24485 23.3418 5.27435 23.2779 5.31015L23.2403 5.33135C23.2173 5.34437 23.1932 5.35854 23.1677 5.37456L23.0823 5.35683C22.9377 5.19041 21.5384 2.78977 21.4161 2.54379C21.4599 2.42051 21.5209 2.389 21.6286 2.33349C21.6625 2.3159 21.7012 2.29589 21.7458 2.26979ZM20.8426 7.54711C19.9256 7.01432 18.9001 6.38792 17.9699 5.90009C17.9422 5.9512 17.9166 5.99364 17.8936 6.03153C17.8199 6.15337 17.7746 6.22816 17.7812 6.39276C18.04 6.58426 20.3596 7.98808 20.5589 8.00054L20.8426 7.54711ZM16.7192 11.1343C17.5877 11.1174 19.5601 11.0792 19.7266 11.2271C19.7573 11.4286 19.7551 11.4539 19.704 11.6515C19.5886 11.6522 19.4302 11.6542 19.2444 11.6566C18.3653 11.668 16.8758 11.6873 16.4498 11.6059C16.3976 11.5245 16.3805 11.4641 16.3764 11.3964C16.375 11.3748 16.375 11.3524 16.3754 11.3284L16.3772 11.2767C16.3786 11.2372 16.3805 11.1926 16.3801 11.1401C16.4447 11.1396 16.552 11.1375 16.6904 11.1348L16.7127 11.1344L16.7192 11.1343ZM20.6856 14.8502C20.6645 14.8367 20.6466 14.8254 20.6276 14.8157C20.6024 14.8029 20.5746 14.7928 20.5341 14.7842C19.5758 15.3232 18.6139 15.8563 17.649 16.3836C17.6647 16.4111 17.6801 16.4397 17.6958 16.4687C17.7757 16.6165 17.8604 16.7742 18.0039 16.8323C18.0868 16.7862 18.2032 16.7229 18.3419 16.6476C19.1049 16.2325 20.5418 15.4509 20.7919 15.1451C20.817 14.9769 20.8243 15.0448 20.7327 14.8793L20.6856 14.8502ZM23.0852 17.3915C23.2557 17.464 23.4787 17.5315 23.5232 17.711C23.2768 18.2688 22.5573 19.4104 22.0904 20.1511L21.875 20.4942C21.8002 20.4772 21.6888 20.4085 21.5859 20.3385C21.5158 20.2909 21.4497 20.2428 21.4019 20.2102L23.0852 17.3915Z" fill="white"/>
<path fill-rule="evenodd" clip-rule="evenodd" d="M26.4679 6.30615C26.4679 7.24258 26.472 8.18898 26.465 9.12689C26.4709 8.32188 26.4683 7.5106 26.4683 6.70478C26.4683 6.57173 26.4679 6.43885 26.4679 6.30615ZM27.3094 10.8083C27.0955 10.6238 26.7965 10.5741 26.534 10.6791C26.1646 10.8272 25.9729 11.2362 26.0956 11.6148C26.2186 11.9935 26.6136 12.2122 26.9998 12.1153C27.2736 12.0465 27.4868 11.8308 27.5518 11.5559C27.6172 11.281 27.5233 10.9927 27.3094 10.8083Z" fill="white"/>
<path d="M26.534 10.6793C26.7963 10.5742 27.0952 10.624 27.3093 10.8084C27.5234 10.9928 27.6169 11.2811 27.5517 11.556C27.4866 11.8309 27.2737 12.0466 26.9997 12.1154C26.6136 12.2123 26.2184 11.9936 26.0956 11.615C25.9729 11.2363 26.1645 10.8273 26.534 10.6793Z" fill="white"/>
<path fill-rule="evenodd" clip-rule="evenodd" d="M27.0898 21.6533C27.0909 21.5981 27.0924 21.5339 27.0939 21.4624C27.0971 21.298 27.1015 21.0946 27.1052 20.8716C27.1015 21.0866 27.0971 21.2834 27.0939 21.4446V21.4624L27.0902 21.6321L27.0898 21.6533Z" fill="white"/>
<path fill-rule="evenodd" clip-rule="evenodd" d="M31.8999 2.28603C31.8849 2.27913 31.8704 2.27218 31.8555 2.26514L31.8614 2.26807L31.8999 2.28603Z" fill="white"/>
<path d="M5.11897 16.4173C5.53399 16.386 5.91225 16.3963 6.31973 16.4898C7.01081 16.6478 7.64082 17.0038 8.13259 17.5143C8.82571 18.2281 10.3369 20.7855 10.9496 21.7622L15.0444 28.1936C14.6964 27.9729 14.3504 27.7135 14.0151 27.4717C11.0724 25.2124 8.23503 22.4084 4.99409 20.6421C4.46813 19.4771 3.96738 18.3009 3.49219 17.1143C4.09975 16.7368 4.42502 16.5789 5.11897 16.4173Z" fill="white"/>
<path d="M9.84962 17.9236C10.4845 17.8778 10.9509 17.883 11.5815 18.0801C12.1798 18.2631 12.7176 18.6044 13.1377 19.0681C13.8398 19.8538 14.6205 21.5299 15.1265 22.527C15.8319 23.9378 16.5506 25.3418 17.2827 26.7389C16.9813 27.2912 16.7811 27.6601 16.6292 28.2711C16.5974 28.4219 16.5754 28.6388 16.4728 28.738C16.425 28.7007 16.3264 28.6185 16.2938 28.5692C14.0724 25.2066 11.9188 21.7927 9.77891 18.3769C9.69485 18.2427 9.65528 18.1458 9.67157 17.991L9.84962 17.9236Z" fill="white"/>
</svg>
