<svg width="45" height="39" viewBox="0 0 45 39" fill="none" xmlns="http://www.w3.org/2000/svg">
<path fill-rule="evenodd" clip-rule="evenodd" d="M5.21933 5.8228C6.53683 5.78331 7.93574 5.79104 9.30326 5.7986C9.85487 5.80165 10.4014 5.80467 10.9354 5.80455L21.1393 5.80341C21.1393 6.0013 21.1356 6.35725 21.1309 6.81426C21.1079 9.0091 21.0611 13.5346 21.2831 14.0715C21.5302 14.2475 26.6064 14.2085 28.6358 14.1929C28.9819 14.1902 29.2392 14.1882 29.3688 14.1881C29.3692 14.7559 29.3714 15.3303 29.3739 15.9096C29.3772 16.589 29.3816 17.275 29.386 17.9645C29.405 20.9678 29.4243 24.0375 29.3553 26.9207C29.0162 27.2406 28.6818 27.565 28.351 27.8936L27.1657 26.6945C27.5034 26.2389 27.7589 25.8142 27.9867 25.2951C28.7103 23.6883 28.7504 21.8569 28.0992 20.2197C27.4107 18.522 26.0822 17.1634 24.3996 16.4373C22.8145 15.763 21.0257 15.7455 19.4275 16.3887C15.8645 17.8261 14.3375 21.7644 15.7769 25.2882C16.0397 25.8897 16.3895 26.4494 16.8148 26.9493C17.9428 28.2969 19.5677 29.1314 21.32 29.2631C23.2844 29.4117 24.837 28.8056 26.3049 27.5446L27.4997 28.7204L27.3555 28.8588C26.8915 29.3034 26.2373 29.9304 25.911 30.3818C26.1545 30.7376 26.7722 31.3496 27.1996 31.7731L27.2372 31.8102C27.3095 31.8817 27.3756 31.9472 27.4322 32.0042L29.8989 34.487L11.7565 34.4846C11.2439 34.4851 10.7157 34.49 10.179 34.4949H10.1758H10.1725C8.43478 34.5108 6.60911 34.5275 4.94115 34.4015C4.85426 34.395 4.5728 34.0732 4.56514 33.9983C4.43152 32.6769 4.44759 31.274 4.46365 29.9038V29.8952C4.46657 29.6436 4.46949 29.3932 4.47132 29.1445L4.47278 28.8877L4.47351 28.6555V20.2061L4.47314 11.6508L4.47132 10.5701V10.4567L4.46949 9.0883C4.46912 8.33335 4.47022 7.57845 4.4757 6.82367C4.48008 6.22024 4.70349 6.03324 5.21933 5.8228ZM13.1141 13.31C11.4203 13.2896 9.72491 13.2692 8.05074 13.3194C7.75723 13.5219 7.50461 13.8141 7.76344 14.2045C7.90289 14.4146 8.20479 14.4338 8.42712 14.438L8.82941 14.4355C9.08057 14.4345 9.33247 14.4343 9.58509 14.4346C9.88663 14.435 10.1889 14.4361 10.4915 14.4372C11.4155 14.4405 12.3406 14.4439 13.2521 14.4274C13.8873 14.416 14.5514 14.4242 15.2165 14.4324C16.0857 14.4431 16.9571 14.4538 17.7698 14.4208C18.0684 14.2066 18.2681 13.9867 18.106 13.5963C17.895 13.3614 17.6851 13.3139 17.3744 13.3195C15.9638 13.3443 14.5393 13.3272 13.1141 13.31ZM7.96604 9.17762C8.03979 9.17349 8.11353 9.17032 8.18727 9.16822C10.1999 9.12261 12.2442 9.14285 14.2805 9.163L14.286 9.16307L15.4173 9.17381C15.7444 9.17669 16.0708 9.17924 16.3968 9.18121C16.6687 9.18283 16.94 9.18406 17.2112 9.1847L17.673 9.18522C18.2436 9.18511 18.321 9.84737 17.796 10.2597C16.0821 10.3439 14.2907 10.3109 12.5034 10.2779C11.049 10.251 9.59677 10.2242 8.19165 10.2607C7.60682 10.276 7.49183 9.63792 7.96604 9.17762ZM10.8811 17.4777C9.90817 17.4674 8.93455 17.457 7.97298 17.4916L7.93793 17.5254C7.76964 17.6884 7.68933 17.7662 7.67071 18.0329C7.651 18.3112 7.931 18.5537 8.18691 18.559C9.55406 18.5874 10.9234 18.5813 12.292 18.5752L12.8527 18.5728C13.2795 18.5711 13.7063 18.5699 14.1327 18.5701C14.1732 18.5701 14.2268 18.5625 14.2721 18.5561L14.2991 18.5523C15.1975 17.6938 14.2239 17.4538 13.4635 17.4737C12.6093 17.496 11.7455 17.4868 10.8811 17.4777ZM8.01606 21.6277L10.9548 21.6128C11.0399 21.6126 11.1406 21.61 11.252 21.607C11.8645 21.5907 12.7984 21.5657 13.1879 21.906C13.4843 22.1653 13.1784 22.5118 12.9422 22.7129L9.87604 22.7307L9.71651 22.7319L9.4774 22.7355C9.05173 22.7425 8.60198 22.75 8.20698 22.7022C7.48672 22.615 7.51738 22.0321 8.01606 21.6277ZM11.5915 25.7446L7.96604 25.7455C7.51373 26.1913 7.54294 26.8353 8.20589 26.8384C8.62534 26.8403 9.04735 26.8432 9.47046 26.8461C10.9234 26.8561 12.3931 26.8662 13.8307 26.8369C13.8917 26.792 13.9487 26.7497 13.9994 26.7048C14.052 26.6581 14.098 26.6084 14.1337 26.55C14.1524 26.5195 14.1684 26.4866 14.1812 26.4504C14.1954 26.4109 14.2057 26.3676 14.2115 26.3192C14.2973 25.6134 12.7604 25.6903 11.9481 25.731C11.8006 25.7383 11.6773 25.7445 11.5915 25.7446ZM8.04599 29.8949L8.80714 29.8911C9.96439 29.8852 11.1224 29.8793 12.2796 29.8857C12.6286 29.8875 13.1408 29.9067 13.251 30.3249C13.3452 30.6816 13.1035 30.872 12.8177 31.0022C12.1858 30.9878 11.506 30.9961 10.819 31.0044C9.91876 31.0154 9.0061 31.0265 8.1723 30.987C7.6437 30.9618 7.38012 30.321 8.04599 29.8949Z" fill="white"/>
<path fill-rule="evenodd" clip-rule="evenodd" d="M16.4035 9.18103C16.333 9.18062 16.2622 9.18017 16.1914 9.17969C16.2593 9.18014 16.3272 9.18058 16.3951 9.18099C16.398 9.18099 16.4006 9.18103 16.4035 9.18103Z" fill="white"/>
<path fill-rule="evenodd" clip-rule="evenodd" d="M12.7578 18.5733C13.1013 18.5719 13.4445 18.5707 13.7876 18.5703C13.4763 18.5707 13.1645 18.5717 12.8527 18.5729L12.7578 18.5733Z" fill="white"/>
<path d="M31.6641 0.00652566L44.9414 0C44.8618 0.841683 44.6774 1.92072 44.5547 2.77504L43.8003 7.94169C42.937 13.7741 41.9701 19.8606 41.2145 25.698C41.0086 26.9674 40.8541 28.2476 40.6422 29.5132C39.1029 29.4691 37.3864 29.5078 35.8364 29.5101C35.7526 28.5555 35.5376 27.2808 35.4047 26.3113C35.0928 24.014 34.7677 21.7186 34.4295 19.4251L31.6641 0.00652566Z" fill="white"/>
<path d="M0.778904 9.89717C1.60002 9.85263 2.47903 9.8734 3.30524 9.87789L3.30308 26.4274L3.29871 31.3237C3.29704 32.163 3.22932 33.2549 3.33948 34.0648C3.5998 35.9793 5.85199 35.6481 7.14458 35.6481H11.4298C16.0814 35.6475 20.8395 35.6978 25.4812 35.6389C25.4854 36.3583 25.5237 37.638 25.4489 38.3052C25.2339 38.6651 25.1088 38.7668 24.7478 38.9741C24.0653 39.0296 22.6512 38.987 21.9273 38.9866L16.428 38.9872C11.478 38.9878 6.52056 38.9902 1.57003 38.9835C1.26223 38.9831 0.786925 38.9599 0.491467 38.881C0.398728 38.8563 0.199123 38.6041 0.151048 38.5011C0.0713008 38.3301 0.0172377 38.1368 0.0172976 37.9432C0.0176568 36.7407 0.0190935 35.5291 0.019333 34.3274L0.0204109 26.9249L0.0194535 16.837C0.0184956 15.0253 -0.0667605 12.2772 0.127398 10.4134C0.146676 10.2279 0.597438 9.98146 0.778904 9.89717Z" fill="white"/>
<path fill-rule="evenodd" clip-rule="evenodd" d="M27.356 22.0207C27.0307 18.9825 24.3019 16.7849 21.2642 17.1154C18.2342 17.4452 16.0439 20.1652 16.3677 23.195C16.6915 26.2248 19.4075 28.4204 22.4383 28.1024C25.4778 27.7836 27.6802 25.0587 27.356 22.0207ZM21.9914 18.331C23.3236 18.4837 24.8046 19.3035 25.5329 20.4422C25.8071 20.8717 25.4712 21.2317 25.0904 21.402C24.7593 21.3148 24.5348 21.0307 24.2994 20.7329C24.1493 20.5429 23.9949 20.3474 23.8054 20.1939C23.498 19.9449 23.064 19.8041 22.6427 19.6677C22.1703 19.5146 21.7147 19.3669 21.4734 19.0775C21.3716 18.6577 21.6041 18.5353 21.9239 18.3667L21.9914 18.331Z" fill="white"/>
<path d="M35.1562 32.9184L41.3702 32.9116C41.3312 34.8859 41.3731 36.9916 41.3779 38.9761H35.1712L35.1562 32.9184Z" fill="white"/>
<path d="M22.2891 5.98242C22.8057 6.41182 23.7948 7.51403 24.3211 8.03401L29.3849 13.0492C27.2218 12.9662 24.5037 13.0386 22.3106 13.0462C22.3166 10.6915 22.31 8.33692 22.2891 5.98242Z" fill="white"/>
<path d="M29.7209 28.0576C29.7431 28.0673 29.7652 28.0776 29.7862 28.0889C30.0999 28.257 33.8849 32.1212 33.931 32.3377C33.9866 32.6013 33.8286 32.9037 33.6771 33.109C33.276 33.6539 32.4737 34.4557 31.7966 34.5659C31.2524 34.3863 27.9595 30.9566 27.4297 30.3187C28.014 29.6651 29.0647 28.6963 29.7209 28.0576Z" fill="white"/>
</svg>
