<svg width="54" height="33" viewBox="0 0 54 33" fill="none" xmlns="http://www.w3.org/2000/svg">
<path d="M13.997 1.57673L17.4775 1.56535C18.1185 1.56212 19.634 1.46676 20.1018 1.78158C20.3488 2.54251 20.2106 8.949 20.2094 10.2626L20.2071 30.826L22.8734 30.8285C22.916 29.309 22.8752 27.5874 22.8742 26.0545L22.8693 16.8724C22.8687 16.0621 22.7903 11.9782 22.9875 11.4221C23.5312 11.0112 26.8781 11.3165 27.7474 11.2226C28.2414 11.1692 29.6639 11.1416 30.0536 11.4585C30.2153 11.9811 30.1464 16.3193 30.1458 17.3095L30.1386 30.8229C31.0319 30.8334 31.9413 30.825 32.8358 30.8251L32.8346 20.906C32.834 19.8267 32.7244 15.6704 32.9765 14.9951C33.3824 14.6788 35.0522 14.7987 35.6161 14.805C36.4909 14.8097 37.3656 14.8039 38.2408 14.7874C38.6539 14.7828 39.5634 14.713 39.846 14.9891C40.1136 15.6902 39.9897 19.8157 39.9879 20.8197L39.9813 30.8278L42.6646 30.8295C42.679 29.4292 42.5455 19.6484 42.7724 19.0791C42.9742 18.8954 43.3047 18.8172 43.5735 18.8225C45.4767 18.8598 47.3836 18.7634 49.2845 18.8258C50.0765 18.8517 49.9772 19.4411 49.964 20.0234L49.9538 30.8249C50.5902 30.8337 51.365 30.7464 51.9798 30.8284C53.282 31.0022 53.3478 32.2079 52.3336 32.9079L52.2522 32.9136C51.432 32.967 50.2921 32.9333 49.4443 32.9322L44.5272 32.9304L29.0777 32.9302L9.80613 32.9311L3.68197 32.9285C2.89133 32.9286 0.89197 33.1274 0.343202 32.6322C0.131262 32.4417 0.00727045 32.1723 0.000385395 31.8874C-0.0072181 31.6176 0.0979712 31.3569 0.290633 31.1679C0.799947 30.6639 2.31999 30.8189 3.08249 30.8274L3.08016 18.913C3.0792 18.0271 3.00652 14.0522 3.19379 13.3912C3.36879 13.2113 3.7707 13.143 4.01365 13.1458C5.8689 13.1676 7.72499 13.1313 9.57917 13.1487C9.68957 13.1518 10.1325 13.2259 10.178 13.3314C10.464 13.9958 10.3573 15.4532 10.3578 16.1228L10.3667 19.704L10.375 30.823L13.0534 30.8233L13.0567 11.8605L13.0468 5.44422C13.0434 4.36386 13.0303 3.28296 13.0366 2.20278C13.0403 1.58014 13.5271 1.5893 13.997 1.57673Z" fill="white"/>
<path d="M26.2515 0.0025709C26.2862 0.00149336 26.3209 0.000715042 26.3556 0.000236133C27.3998 -0.013293 27.5267 0.555471 27.5153 1.46684C27.5015 2.61921 27.5051 3.77883 27.5063 4.93156C27.765 4.67894 28.2804 4.14681 28.5714 4.00368C28.8378 3.87509 29.1444 3.85809 29.4228 3.95638C30.4064 4.29623 30.1873 5.3275 29.509 5.88124C28.7235 6.52232 27.5464 8.00335 26.6687 8.3821C26.4149 8.39384 26.0796 8.3818 25.8503 8.13594C25.4235 7.65416 22.782 5.54187 22.8983 4.95677C23.362 2.62298 25.1516 4.62416 25.536 4.98287C25.53 3.86617 25.5151 2.74678 25.5216 1.63032C25.5264 0.794687 25.4139 0.396234 26.2515 0.0025709Z" fill="white"/>
</svg>
