 <svg
      width="24"
      height="24"
      viewBox="0 0 28 28"
      fill="none"
      xmlns="http://www.w3.org/2000/svg"
    >
      <path
        d="M13.6089 27.4207C11.8153 27.4233 10.0394 27.0754 8.38637 26.3977C6.73335 25.7201 5.23682 24.7263 3.98541 23.4754C1.43044 20.9299 0 17.5122 0 13.9532C0 10.3942 1.43044 6.97646 3.98541 4.43092C5.23846 3.18214 6.73531 2.18983 8.38796 1.51234C10.0406 0.834845 11.8157 0.48584 13.6089 0.48584C15.4021 0.48584 17.1772 0.834845 18.8299 1.51234C20.4825 2.18983 21.9794 3.18214 23.2324 4.43092C25.8004 6.96819 27.2334 10.3912 27.2187 13.9532C27.2164 15.4123 26.9791 16.8621 26.5153 18.2496C26.4841 18.3475 26.448 18.4541 26.4028 18.5832L22.3964 10.3728C21.7069 8.64777 20.5 7.16477 18.9327 6.11685C17.3653 5.06893 15.5103 4.50464 13.6089 4.49744C11.0636 4.52994 8.63538 5.54368 6.85663 7.3164C5.07789 9.08912 4.09377 11.4762 4.12006 13.9542C4.09378 16.4322 5.07806 18.8193 6.85705 20.5919C8.63604 22.3645 11.0645 23.3779 13.6099 23.4099C14.7071 23.4096 15.7956 23.2208 16.8255 22.8523L18.9286 26.3583C17.2483 27.0618 15.438 27.4233 13.6089 27.4207Z"
        fill="#2847C5"
      />
      <path
        d="M28.2042 27.5134L18.7847 11.1765C18.0906 10.0369 17.036 9.14684 15.7789 8.63917C14.5219 8.1315 13.1295 8.0336 11.8105 8.36022L22.7158 27.5144L28.2042 27.5134Z"
        fill="#0D94E4"
      />
      <path
        d="M2.15527 6.70975L8.91647 18.336C9.61033 19.4756 10.6653 20.3658 11.9222 20.8733C13.1792 21.3808 14.571 21.4783 15.8896 21.1513L5.42989 3.24194C4.06873 4.12587 2.94582 5.31513 2.15527 6.70975Z"
        fill="#0D94E4"
      />
    </svg>