<svg width="40" height="42" viewBox="0 0 40 42" fill="none" xmlns="http://www.w3.org/2000/svg">
<path d="M7.2 0C4.45 0 2.2 2.25 2.2 5V37C2.2 39.75 4.45 42 7.2 42H32.8C35.55 42 37.8 39.75 37.8 37V11.8C37.8 11.15 37.55 10.55 37.1 10.1L27.7 0.7C27.25 0.25 26.65 0 26 0H7.2ZM7.2 3.6H24.2V10.6C24.2 13.1 26.2 15.2 28.8 15.2H34.2V37C34.2 37.8 33.6 38.4 32.8 38.4H7.2C6.4 38.4 5.8 37.8 5.8 37V5C5.8 4.2 6.4 3.6 7.2 3.6ZM27.8 4.35L33.45 10H28.8C28.15 10 27.8 9.65 27.8 9V4.35ZM12.2 18.2V21.8H17.8V27.4H21.4V21.8H27V18.2H21.4V12.6H17.8V18.2H12.2ZM11.2 31.2V34.8H28.8V31.2H11.2Z" fill="#10172A"/>
</svg>
