<svg width="42" height="38" viewBox="0 0 42 38" fill="none" xmlns="http://www.w3.org/2000/svg">
<path d="M36.8191 21.7488L40.5789 16.8553C41.5815 15.5262 42.0828 13.9857 41.9888 12.4452C41.7695 9.63593 40.3282 7.55167 37.853 6.55485C35.4092 5.58824 32.5267 6.13196 30.4588 7.97456L11.2211 25.1622C9.49789 26.7027 7.14802 27.2766 5.11146 26.6423C3.82686 26.2496 3.63888 25.6455 3.57621 25.4038C3.01224 23.531 5.14279 19.8156 7.14802 17.2782C8.30729 17.7917 9.59189 18.0636 10.9392 18.0636C16.1089 18.0636 20.3073 14.0159 20.3073 9.0318C20.3073 4.0477 16.1089 0 10.9392 0C5.76943 0 1.57098 4.0477 1.57098 9.0318C1.57098 14.0159 2.60493 13.744 4.26551 15.3752C2.51094 17.6407 -0.904212 22.655 0.223727 26.3402C0.568376 27.5183 1.53965 29.0588 4.07752 29.8442C4.9548 30.1161 5.89476 30.2369 6.80337 30.2369C9.24724 30.2369 11.6911 29.3307 13.6023 27.6089L32.84 10.4213C33.9053 9.4849 35.3465 9.18283 36.5371 9.63593C37.7904 10.1494 38.4483 11.1161 38.5423 12.6566C38.605 13.3816 38.323 14.1367 37.8217 14.8315L33.6859 20.2385C32.934 20.0572 32.1507 19.9364 31.3361 19.9364C26.1663 19.9364 21.9679 23.9841 21.9679 28.9682C21.9679 33.9523 26.1663 38 31.3361 38C36.5058 38 40.7042 33.9523 40.7042 28.9682C40.7042 23.9841 39.2003 23.3498 36.8818 21.6884L36.8191 21.7488ZM10.8765 3.38315C14.135 3.38315 16.7668 5.92051 16.7668 9.062C16.7668 12.2035 14.135 14.7409 10.8765 14.7409C7.618 14.7409 4.98614 12.2035 4.98614 9.062C4.98614 5.92051 7.618 3.38315 10.8765 3.38315ZM31.2734 34.7075C28.0149 34.7075 25.383 32.1701 25.383 29.0286C25.383 25.8871 28.0149 23.3498 31.2734 23.3498C34.5319 23.3498 37.1637 25.8871 37.1637 29.0286C37.1637 32.1701 34.5319 34.7075 31.2734 34.7075Z" fill="#10172A"/>
</svg>
